<svg version="1.1" id="Layer_1" xmlns="http://www.w3.org/2000/svg" xmlns:xlink="http://www.w3.org/1999/xlink" x="0px" y="0px"
	 width="100%" viewBox="0 0 500 500" enable-background="new 0 0 500 500" xml:space="preserve">
<path fill="#000000" opacity="1.000000" stroke="none" 
	d="
M282.000000,501.000000 
	C188.000015,501.000000 94.500046,501.000000 1.000050,501.000000 
	C1.000033,334.333405 1.000033,167.666794 1.000017,1.000140 
	C167.666565,1.000093 334.333130,1.000093 500.999756,1.000046 
	C500.999847,167.666519 500.999847,334.333038 500.999939,500.999786 
	C428.166656,501.000000 355.333344,501.000000 282.000000,501.000000 
M372.988922,106.014458 
	C372.988922,106.014458 373.014099,106.069893 372.593140,106.260628 
	C372.325745,106.447502 372.162994,106.701454 372.029816,107.001976 
	C372.029816,107.001976 372.014069,107.078255 371.502716,107.138863 
	C371.364716,107.431358 371.226685,107.723862 371.004395,108.034142 
	C371.004395,108.034142 371.028168,108.116943 370.594452,108.271133 
	C370.326233,108.449867 370.150604,108.694962 369.430145,109.176048 
	C367.941132,110.757286 366.452148,112.338524 364.461456,114.088448 
	C364.314636,114.390793 364.167816,114.693138 363.991974,114.998940 
	C363.991974,114.998940 364.001373,115.026596 363.558716,115.211273 
	C363.255554,115.412506 363.137451,115.691956 363.028381,116.074829 
	C363.028381,116.074829 363.065399,116.248718 362.648102,116.347267 
	C362.377686,116.510735 362.242828,116.750496 362.072998,117.045616 
	C362.072998,117.045616 362.065765,117.217300 361.614380,117.289444 
	C361.315399,117.461617 361.182831,117.719398 361.046936,118.069710 
	C361.046936,118.069710 361.067871,118.238228 360.646271,118.343292 
	C360.379211,118.508110 360.230988,118.746742 360.074371,119.013672 
	C360.074371,119.013672 360.041748,119.144867 359.536896,119.166855 
	C359.353638,119.436569 359.170380,119.706291 358.470032,120.158958 
	C358.322021,120.478928 358.173981,120.798889 357.551392,121.521240 
	C357.698364,122.686310 357.845367,123.851379 358.167633,125.668159 
	C361.108643,128.322632 364.266998,130.775040 366.954224,133.665497 
	C380.885956,148.650894 393.306671,164.760147 401.252441,183.784210 
	C404.810303,192.302551 407.295288,201.269012 410.161163,210.518829 
	C410.336212,210.836990 410.604523,211.013229 411.051239,211.637878 
	C411.339905,212.103455 411.628571,212.569031 411.971802,213.842621 
	C412.706085,216.886276 413.440399,219.929916 414.047729,223.873520 
	C414.767487,229.143860 415.487244,234.414185 416.055176,240.525406 
	C415.678833,250.085861 415.566864,259.666595 414.835449,269.199799 
	C414.326721,275.830688 412.967194,282.396240 411.379059,289.349335 
	C411.013428,290.891510 410.647797,292.433685 410.130737,294.720337 
	C409.754425,296.149261 409.378113,297.578186 408.454376,299.250671 
	C408.417786,299.817871 408.381195,300.385040 408.177643,301.618439 
	C408.114929,302.071320 408.052216,302.524200 407.351532,303.230774 
	C407.016815,304.474518 406.682098,305.718292 406.058136,307.579803 
	C405.708801,308.398224 405.359467,309.216644 404.582581,310.183228 
	C404.582581,310.183228 404.294006,310.530365 404.294006,310.530365 
	C404.294006,310.530365 404.455353,310.951874 404.255981,311.634949 
	C404.173004,312.102020 404.090057,312.569092 403.472198,313.303253 
	C403.333252,313.872711 403.194336,314.442200 402.995941,315.010895 
	C402.995941,315.010895 403.028717,315.060486 402.563080,315.355774 
	C402.504395,315.884064 402.445709,316.412384 402.139069,317.476074 
	C402.098022,317.668427 402.057007,317.860748 401.588501,318.232880 
	C401.287659,318.437225 401.198029,318.710785 401.096375,319.167847 
	C401.096375,319.167847 401.139191,319.414948 400.718292,319.615723 
	C400.619659,320.056152 400.521027,320.496582 400.131714,321.473206 
	C400.094727,321.673126 400.057739,321.873016 399.607727,322.264404 
	C399.329224,322.459961 399.214630,322.726105 399.076599,323.075745 
	C399.076599,323.075745 399.103699,323.261566 398.643616,323.452942 
	C398.651703,323.915405 398.659790,324.377869 398.318237,325.538635 
	C398.229828,325.783478 398.141449,326.028351 397.650085,326.359894 
	C397.386047,326.519104 397.266022,326.752441 397.057220,327.080750 
	C397.057220,327.080750 397.009918,327.309601 396.695221,327.312531 
	C396.695221,327.312531 396.500824,327.557556 396.500824,327.557556 
	C396.500824,327.557556 396.740387,327.758636 396.414978,328.507416 
	C396.284485,329.032532 396.154022,329.557648 395.646027,330.299164 
	C395.395050,330.488953 395.271423,330.741150 395.083557,331.073914 
	C395.083557,331.073914 395.097351,331.265869 394.684174,331.504578 
	C394.603668,331.975098 394.523193,332.445648 393.840820,333.357178 
	C391.574677,337.048950 389.308502,340.740723 386.700684,344.744019 
	C386.540466,345.174805 386.380249,345.605560 385.708252,346.308350 
	C385.489044,346.620392 385.269867,346.932434 384.640381,347.352325 
	C384.376526,347.516174 384.241669,347.753357 384.078278,348.053284 
	C384.078278,348.053284 384.086029,348.210938 383.564941,348.441162 
	C383.372131,348.959503 383.179352,349.477875 382.449371,350.410583 
	C374.248810,359.040649 366.153229,367.774445 357.788208,376.241974 
	C355.029388,379.034576 354.396271,381.056915 357.469635,384.001068 
	C363.584503,389.858856 369.459198,395.966919 375.450531,401.954193 
	C378.138397,404.640228 380.692352,407.511536 383.676727,409.821075 
	C384.684479,410.601044 387.309082,410.555206 388.368317,409.770782 
	C391.682800,407.316284 394.890076,404.583557 397.620636,401.499756 
	C404.938171,393.235504 412.222412,384.920410 419.088684,376.282745 
	C431.080200,361.197510 440.207672,344.440826 447.310760,326.016693 
	C447.490906,325.351685 447.671021,324.686676 448.056366,323.544769 
	C448.049286,323.371857 448.042175,323.198944 448.550323,322.525696 
	C457.421814,298.171204 461.450287,273.018951 460.846619,247.127090 
	C460.727722,242.027313 460.463104,236.911331 459.884491,231.846344 
	C458.938965,223.569290 458.168396,215.225128 456.454407,207.092545 
	C452.604919,188.827988 446.774109,171.135803 437.619202,154.816254 
	C432.038513,144.868210 425.352722,135.540100 418.863281,125.298630 
	C410.570190,115.869469 402.277100,106.440315 393.653809,96.401527 
	C387.245758,92.068359 387.245758,92.068359 381.313110,97.216263 
	C378.902954,99.822556 376.492767,102.428848 374.027466,104.997963 
	C374.027466,104.997963 374.014709,105.063194 373.483307,105.100410 
	C373.338501,105.401550 373.193665,105.702698 372.988922,106.014458 
M182.000610,207.000000 
	C182.000610,207.000000 182.037842,207.026779 182.534271,206.781769 
	C182.860977,206.340454 183.187698,205.899124 184.028244,205.092621 
	C184.464203,204.164963 184.900162,203.237320 185.022095,202.209244 
	C185.022095,202.209244 185.336914,202.325272 185.894928,202.160934 
	C186.427170,201.423950 186.959412,200.686966 187.771820,199.465027 
	C187.836624,199.289948 187.901443,199.114868 188.577942,198.682693 
	C192.835953,194.738693 197.128189,190.830750 201.338318,186.836273 
	C203.637802,184.654602 203.835098,182.522476 201.339478,180.076019 
	C193.381760,172.275085 185.540482,164.354340 177.713089,156.421799 
	C172.566208,151.205780 172.606201,151.154068 167.061920,155.615189 
	C166.419159,156.132385 165.895172,156.794434 165.288589,157.359772 
	C152.782089,169.015503 142.726379,182.451477 135.790100,198.128754 
	C128.474731,214.662811 123.977196,231.778625 125.196915,250.833389 
	C125.237633,251.867355 125.278343,252.901337 125.115013,254.855896 
	C126.513985,265.585175 126.624817,276.697327 129.668442,286.937805 
	C132.812302,297.515442 138.806808,307.245819 143.612091,317.344910 
	C143.612091,317.344910 143.669846,317.348663 143.754517,317.740021 
	C143.754517,317.740021 144.068207,317.988831 144.207047,318.641052 
	C144.619034,319.424316 145.031006,320.207611 145.469162,321.524811 
	C145.988724,321.997284 146.508286,322.469788 146.998459,322.994934 
	C146.998459,322.994934 147.054977,322.973877 147.257446,323.538757 
	C147.854126,324.313843 148.450806,325.088959 149.276672,326.511658 
	C154.853561,332.341278 160.430450,338.170898 166.202454,344.459045 
	C166.412781,344.760437 166.701187,344.897430 167.056961,344.954651 
	C167.056961,344.954651 167.137070,344.925537 167.373077,345.550598 
	C173.953156,352.518951 174.716003,352.557526 181.428604,345.705688 
	C182.797043,344.308899 183.847961,342.601013 185.000000,341.000000 
	C185.000000,341.000000 185.036591,341.045197 185.660370,340.790680 
	C190.879822,335.493561 195.922394,330.005524 201.372421,324.957306 
	C206.075333,320.601105 205.689453,319.603729 201.167175,315.106445 
	C194.050583,308.029175 187.064514,300.613770 181.321594,292.430389 
	C177.068985,286.370575 174.880188,278.862396 171.912491,271.206940 
	C171.293976,268.792480 170.675476,266.377991 169.985764,263.108704 
	C169.857483,260.157471 169.729202,257.206268 169.853531,253.457169 
	C169.835922,249.307755 169.818298,245.158340 169.963669,240.240952 
	C170.327789,238.209473 170.691925,236.178009 171.582840,233.817474 
	C171.663635,233.228821 171.744431,232.640167 171.958008,231.350586 
	C172.256485,230.226074 172.554947,229.101547 173.140808,227.289627 
	C174.954041,222.831528 176.767273,218.373444 178.710068,213.442917 
	C178.710068,213.442917 178.840424,212.970688 179.417816,212.614380 
	C180.063538,211.192352 180.709244,209.770325 181.337067,208.292007 
	C181.337067,208.292007 181.380127,208.251602 181.797440,207.983551 
	C181.974716,207.690155 182.053772,207.372330 182.000610,207.000000 
M108.443886,97.287170 
	C108.303986,97.459892 108.164093,97.632607 107.421310,97.820534 
	C98.273323,108.337120 88.550903,118.415405 80.113037,129.473846 
	C67.698364,145.744141 58.837193,164.007874 52.212494,183.442337 
	C47.480103,197.325485 44.048328,211.376114 42.307907,226.338791 
	C42.181286,228.300522 41.986359,230.260620 41.939240,232.224258 
	C41.655640,244.042374 41.281319,255.860855 41.236946,267.680328 
	C41.226509,270.459991 42.367970,273.243958 43.096127,276.488312 
	C43.096127,276.488312 43.204102,276.952759 43.003986,277.790253 
	C43.344952,280.172302 43.685917,282.554382 44.015442,285.793549 
	C45.991867,294.205505 47.968292,302.617493 49.956276,311.823547 
	C51.605827,316.774384 52.910461,321.875122 54.982380,326.642395 
	C58.456036,334.634888 62.418598,342.414856 66.230759,351.044647 
	C76.284142,369.053772 88.627190,385.353088 103.205780,400.790161 
	C105.993179,403.151733 108.998940,405.304565 111.509338,407.930908 
	C114.267212,410.816254 116.455330,410.501343 119.050354,407.863342 
	C126.963211,399.819366 134.855759,391.749908 142.972992,383.915009 
	C146.434402,380.574005 146.209732,378.167999 142.679672,375.081726 
	C120.456879,355.653137 104.826050,331.754272 94.892532,303.230591 
	C92.879120,296.049164 90.865707,288.867706 88.885216,281.294922 
	C88.830292,281.018372 88.680748,280.809570 88.870247,280.271820 
	C88.591286,279.820679 88.312325,279.369568 87.993759,278.023254 
	C87.335945,272.507416 86.040001,266.978790 86.150024,261.478302 
	C86.397011,249.130005 86.213264,236.603455 88.273872,224.501770 
	C91.196030,207.340393 96.704140,190.756744 104.862762,175.189667 
	C113.984215,157.785477 125.894508,142.545563 140.700546,128.769089 
	C141.488281,127.554367 142.276016,126.339638 143.697144,124.816963 
	C143.539047,124.105957 143.618210,123.167747 143.187424,122.717873 
	C136.202545,115.423500 129.152969,108.191093 121.973198,100.269539 
	C120.650055,98.822113 119.464462,97.210854 117.975571,95.960846 
	C114.719231,93.226952 111.539917,92.572868 108.443886,97.287170 
M331.976379,238.012894 
	C331.976379,238.012894 331.963226,238.039124 332.012085,238.970444 
	C332.016144,242.968491 332.296082,246.989594 331.964539,250.959610 
	C331.348724,258.332794 331.306824,265.931702 329.371002,272.982239 
	C324.315094,291.396393 313.326080,306.031708 298.127441,317.478088 
	C295.096893,319.760437 295.586212,321.783813 297.816315,324.012634 
	C300.520935,326.715698 303.323730,329.320587 306.262634,332.609772 
	C311.788055,338.149109 317.406006,343.600311 322.801086,349.263794 
	C325.626251,352.229523 327.951874,351.888855 330.874664,349.411865 
	C342.035431,339.953461 351.987427,329.496429 359.492645,316.814728 
	C368.953430,300.828644 375.441010,283.676544 376.763428,265.209686 
	C378.258545,244.331863 376.936432,223.524857 368.620239,203.793549 
	C363.247681,191.046448 356.644135,179.074219 346.811279,168.315704 
	C341.491425,163.095612 336.220367,157.824341 330.826202,152.682190 
	C328.840515,150.789230 327.122803,151.684097 325.336670,153.483566 
	C316.777924,162.106247 307.980072,170.496872 299.618988,179.303955 
	C298.546814,180.433334 298.634460,184.301666 299.727417,185.543610 
	C303.095367,189.370575 307.211182,192.539383 311.296906,196.589981 
	C314.735382,201.345703 318.622986,205.847473 321.493591,210.924286 
	C324.756256,216.694550 327.109924,222.978821 329.966705,229.802765 
	C330.298157,231.214844 330.629608,232.626938 331.042206,234.544373 
	C331.086151,234.709244 331.130096,234.874100 331.036926,235.706238 
	C331.342743,236.477615 331.648590,237.248993 331.976379,238.012894 
M250.914871,216.842468 
	C242.998215,214.430237 241.142090,215.726868 241.141800,223.670212 
	C241.141556,230.422897 241.141739,237.175583 241.141739,244.307404 
	C231.709793,244.307404 222.960495,244.307404 213.884735,244.307404 
	C213.884735,250.963486 213.884735,257.224091 213.884735,263.896179 
	C222.629791,263.896179 231.719391,263.896179 241.176178,263.896179 
	C241.176178,273.054291 241.176178,281.808624 241.176178,290.660461 
	C247.925278,290.660461 254.292664,290.660461 261.036224,290.660461 
	C261.036224,281.562744 261.036224,272.807373 261.036224,263.653900 
	C270.164520,263.653900 278.917145,263.653900 287.816559,263.653900 
	C287.816559,256.996094 287.816559,250.752045 287.816559,243.936371 
	C278.693817,243.936371 269.818115,243.936371 260.637939,243.936371 
	C260.637939,234.584900 260.637939,225.804581 260.637939,216.879120 
	C257.482300,216.879120 254.658051,216.879120 250.914871,216.842468 
z"/>
<path fill="#98BDE6" opacity="1.000000" stroke="none" 
	d="
M143.063751,125.124908 
	C142.276016,126.339638 141.488281,127.554367 140.009201,128.908783 
	C131.870392,129.337524 130.213058,136.792587 125.559723,140.542862 
	C121.517502,143.800629 118.967262,148.970383 115.949890,153.425354 
	C110.975677,160.769516 105.372536,167.831207 101.472488,175.722656 
	C96.706055,185.367203 93.146385,195.648514 89.596695,205.839691 
	C87.260315,212.547440 85.002663,219.489426 84.247040,226.492371 
	C83.121208,236.926254 82.350220,247.600998 83.330399,257.993866 
	C84.081924,265.962463 81.730568,274.655548 86.710464,282.266052 
	C88.308693,289.685181 90.176323,296.833344 92.027817,304.379456 
	C92.252419,305.891541 92.317146,307.082092 92.762268,308.107513 
	C95.801506,315.108765 98.423920,322.353119 102.133217,328.986481 
	C107.390228,338.387512 112.919342,347.740845 119.366173,356.339294 
	C124.596550,363.315338 131.678284,368.881683 137.212555,375.665771 
	C138.719864,377.513489 138.753021,382.215088 137.431885,384.350403 
	C135.180206,387.989685 131.347687,390.662811 128.130310,393.689758 
	C123.739563,397.820587 119.302872,401.902649 114.863228,406.026703 
	C110.680099,403.218597 106.848579,400.646515 102.972839,397.705261 
	C101.525932,394.964966 100.450356,392.301819 98.650398,390.285309 
	C95.218292,386.440155 90.799644,383.375397 87.830818,379.239899 
	C83.139236,372.704590 79.363045,365.517517 75.080795,358.680573 
	C73.207733,355.690063 71.041672,352.883118 68.962234,349.625244 
	C65.792160,342.193939 62.566635,335.172913 59.577351,328.052765 
	C57.217991,322.433014 55.149300,316.691254 52.958878,310.598969 
	C51.640537,305.194733 50.056137,300.246094 49.059681,295.181763 
	C47.999336,289.792725 47.624763,284.271149 46.660522,278.859161 
	C46.412159,277.465149 45.073620,276.265381 44.201691,274.575134 
	C44.133785,270.067993 44.005245,265.960297 44.084282,261.856598 
	C44.314457,249.905960 44.627682,237.956924 45.303276,225.923401 
	C46.122311,224.850998 46.956234,223.841949 46.908066,222.876953 
	C46.331951,211.334839 50.598927,200.683640 53.813305,190.058304 
	C57.343533,178.388901 62.167839,166.890060 68.050674,156.210602 
	C75.015106,143.567627 83.504333,131.734802 91.751213,119.841049 
	C95.661240,114.201958 100.543770,109.237175 105.326141,103.941193 
	C106.446983,102.946320 107.227417,101.977180 108.003922,101.004013 
	C108.000000,101.000000 108.008034,101.005722 108.306992,100.874123 
	C109.403206,99.828064 110.200462,98.913597 111.399338,97.991180 
	C112.873093,97.986176 113.945221,97.989128 115.050674,98.338669 
	C116.456879,100.301514 117.678421,102.082474 119.228096,103.506287 
	C127.126656,110.763283 135.110046,117.927933 143.063751,125.124908 
z"/>
<path fill="#2975BF" opacity="1.000000" stroke="none" 
	d="
M178.840424,212.970688 
	C178.840424,212.970688 178.710068,213.442917 178.289734,213.712021 
	C173.768936,217.370209 172.310944,221.944504 171.657227,227.092102 
	C166.349243,230.666077 167.348770,236.593750 166.324295,241.348129 
	C165.066772,247.184158 165.532013,253.550400 166.188736,259.585571 
	C166.648499,263.810852 168.676529,267.865479 170.041901,272.347961 
	C173.127518,293.404907 187.025787,307.275696 201.353699,321.135437 
	C197.493881,325.022156 193.802750,328.308167 190.656815,332.052277 
	C188.405121,334.732086 186.883789,338.025543 185.036591,341.045197 
	C185.036591,341.045197 185.000000,341.000000 184.636688,341.008240 
	C183.308884,341.165710 182.156525,341.026550 181.411011,341.512054 
	C177.274948,344.205872 171.010925,345.788391 167.137070,344.925537 
	C167.137070,344.925537 167.056961,344.954651 167.059021,344.691986 
	C167.061081,344.429321 167.029434,343.989227 167.010956,343.605042 
	C166.072601,341.374268 165.392303,338.125000 164.192017,337.919983 
	C158.512573,336.949890 159.027847,330.929047 155.468735,328.126434 
	C152.092621,325.467896 150.310425,320.842163 147.564514,317.284332 
	C146.915634,316.443573 145.213928,316.415344 143.851517,315.686493 
	C141.479599,310.448181 138.925552,305.653870 137.113754,300.593781 
	C135.124695,295.038727 133.744186,289.258575 132.240356,283.539185 
	C131.043655,278.987915 130.051987,274.382477 128.984528,269.797546 
	C127.753967,264.512146 126.540138,259.222900 125.319054,253.935303 
	C125.278343,252.901337 125.237633,251.867355 125.612915,250.317047 
	C127.480804,242.621185 130.143051,235.553146 128.346283,227.985626 
	C129.090515,227.280502 129.520737,226.635315 129.966919,225.564362 
	C129.994400,223.434143 130.005905,221.729675 130.336655,219.984650 
	C131.095810,218.961517 131.535706,217.978943 131.982178,216.623047 
	C132.325211,214.827469 132.661697,213.405182 133.341187,211.930969 
	C134.092987,210.913757 134.501770,209.948471 134.971466,208.606277 
	C142.040085,186.983047 154.186890,169.455231 171.696228,155.705719 
	C175.863770,159.507904 179.265396,162.535446 182.579407,165.656036 
	C185.928085,168.809280 188.920212,172.407944 192.550446,175.180466 
	C198.626114,179.820602 198.887939,183.191589 194.625854,189.205536 
	C192.376236,192.379822 187.258545,193.769821 187.966263,198.939789 
	C187.901443,199.114868 187.836624,199.289948 187.344849,199.764984 
	C186.390884,200.818375 185.863892,201.571823 185.336914,202.325272 
	C185.336914,202.325272 185.022095,202.209244 184.872437,202.289795 
	C184.151932,202.940414 183.581116,203.510498 182.781311,204.069199 
	C182.391129,204.372040 182.229950,204.686249 182.047073,205.338013 
	C182.029526,206.125977 182.033691,206.576385 182.037842,207.026779 
	C182.037842,207.026779 182.000610,207.000000 181.792267,207.143967 
	C181.515991,207.609161 181.448059,207.930374 181.380127,208.251602 
	C181.380127,208.251602 181.337067,208.292007 181.008972,208.318726 
	C180.067398,209.887192 179.453903,211.428940 178.840424,212.970688 
z"/>
<path fill="#FAFAFA" opacity="1.000000" stroke="none" 
	d="
M251.374344,216.860794 
	C254.658051,216.879120 257.482300,216.879120 260.637939,216.879120 
	C260.637939,225.804581 260.637939,234.584900 260.637939,243.936371 
	C269.818115,243.936371 278.693817,243.936371 287.816559,243.936371 
	C287.816559,250.752045 287.816559,256.996094 287.816559,263.653900 
	C278.917145,263.653900 270.164520,263.653900 261.036224,263.653900 
	C261.036224,272.807373 261.036224,281.562744 261.036224,290.660461 
	C254.292664,290.660461 247.925278,290.660461 241.176178,290.660461 
	C241.176178,281.808624 241.176178,273.054291 241.176178,263.896179 
	C231.719391,263.896179 222.629791,263.896179 213.884735,263.896179 
	C213.884735,257.224091 213.884735,250.963486 213.884735,244.307404 
	C222.960495,244.307404 231.709793,244.307404 241.141739,244.307404 
	C241.141739,237.175583 241.141556,230.422897 241.141800,223.670212 
	C241.142090,215.726868 242.998215,214.430237 251.374344,216.860794 
z"/>
<path fill="#8BA9CC" opacity="1.000000" stroke="none" 
	d="
M407.989502,302.977081 
	C408.052216,302.524200 408.114929,302.071320 408.449768,301.094452 
	C408.815186,300.049347 408.908478,299.528229 409.001770,299.007111 
	C409.378113,297.578186 409.754425,296.149261 410.441956,294.205566 
	C411.191406,293.112152 411.629669,292.533478 412.330994,292.169678 
	C412.213562,295.952057 412.695099,299.904327 411.304108,303.020813 
	C405.145508,316.818817 398.465851,330.384766 391.924683,344.010712 
	C391.145508,345.633850 390.231140,347.252197 389.086121,348.628784 
	C385.050751,353.480194 381.001892,358.330139 376.739990,362.980713 
	C372.663635,367.428772 368.569672,371.922241 364.015442,375.853607 
	C359.416565,379.823486 359.051270,380.439728 363.257874,384.750427 
	C370.171814,391.835541 377.039154,398.972351 384.186615,405.815369 
	C385.048035,406.640106 388.069641,406.449615 389.151978,405.572357 
	C392.550476,402.817780 395.762177,399.728973 398.570801,396.371918 
	C404.488312,389.298889 410.020874,381.905334 415.861664,374.766266 
	C425.525543,362.954254 432.988220,349.869415 438.962311,335.870026 
	C440.822693,331.510406 442.997040,327.284760 445.403625,322.996948 
	C446.531403,323.006073 447.283234,323.016052 448.035034,323.026062 
	C448.042175,323.198944 448.049286,323.371857 447.742188,323.949280 
	C447.266541,325.030884 447.105103,325.707916 446.943665,326.384979 
	C440.207672,344.440826 431.080200,361.197510 419.088684,376.282745 
	C412.222412,384.920410 404.938171,393.235504 397.620636,401.499756 
	C394.890076,404.583557 391.682800,407.316284 388.368317,409.770782 
	C387.309082,410.555206 384.684479,410.601044 383.676727,409.821075 
	C380.692352,407.511536 378.138397,404.640228 375.450531,401.954193 
	C369.459198,395.966919 363.584503,389.858856 357.469635,384.001068 
	C354.396271,381.056915 355.029388,379.034576 357.788208,376.241974 
	C366.153229,367.774445 374.248810,359.040649 382.954102,350.058594 
	C383.667908,349.208069 383.876984,348.709503 384.086029,348.210938 
	C384.086029,348.210938 384.078278,348.053284 384.335327,347.968994 
	C384.816040,347.722046 384.968781,347.508636 385.050659,347.244507 
	C385.269867,346.932434 385.489044,346.620392 386.162750,346.037231 
	C386.758972,345.321564 386.900665,344.877045 387.042358,344.432495 
	C389.308502,340.740723 391.574677,337.048950 394.315002,332.983765 
	C394.891907,332.162201 394.994629,331.714050 395.097351,331.265869 
	C395.097351,331.265869 395.083557,331.073914 395.361298,330.952423 
	C395.861542,330.630035 395.989716,330.380646 396.023529,330.082764 
	C396.154022,329.557648 396.284485,329.032532 396.660461,328.088043 
	C396.905975,327.668671 397.009918,327.309601 397.009918,327.309601 
	C397.009918,327.309601 397.057220,327.080750 397.339508,326.980957 
	C397.829010,326.723541 397.972748,326.520905 398.053040,326.273224 
	C398.141449,326.028351 398.229828,325.783478 398.610901,325.017090 
	C398.970276,324.084198 399.036987,323.672882 399.103699,323.261566 
	C399.103699,323.261566 399.076599,323.075745 399.353088,322.953094 
	C399.851501,322.625214 399.981873,322.372711 400.020721,322.072937 
	C400.057739,321.873016 400.094727,321.673126 400.444824,321.063995 
	C400.885010,320.241516 401.012115,319.828217 401.139191,319.414948 
	C401.139191,319.414948 401.096375,319.167847 401.380127,318.988220 
	C401.868591,318.597504 401.985931,318.345642 402.015961,318.053101 
	C402.057007,317.860748 402.098022,317.668427 402.446655,317.024597 
	C402.845734,316.068939 402.937225,315.564697 403.028717,315.060486 
	C403.028717,315.060486 402.995941,315.010895 403.263184,314.842682 
	C403.689331,314.128387 403.848206,313.582275 404.007111,313.036163 
	C404.090057,312.569092 404.173004,312.102020 404.505920,311.181763 
	C404.920258,310.526611 405.005005,310.295441 405.010132,310.035065 
	C405.359467,309.216644 405.708801,308.398224 406.466522,307.081940 
	C407.246429,305.381744 407.617950,304.179413 407.989502,302.977081 
z"/>
<path fill="#83A0C3" opacity="1.000000" stroke="none" 
	d="
M448.292664,322.775879 
	C447.283234,323.016052 446.531403,323.006073 445.405640,322.609924 
	C446.370209,318.016205 447.900787,313.858154 449.001923,309.589355 
	C450.625702,303.294373 452.053223,296.942993 453.361603,290.573975 
	C454.706879,284.025574 456.930481,277.403839 456.794281,270.855255 
	C456.464874,255.017059 458.959198,239.096680 455.161835,223.305618 
	C453.112152,214.782166 453.531647,205.512115 450.587677,197.394760 
	C446.803802,186.961777 445.537720,175.668167 439.104858,166.022705 
	C433.672333,157.877136 429.837799,148.680130 425.037292,140.093124 
	C422.322754,135.237381 419.086426,130.673309 416.470001,125.979996 
	C417.624359,125.965927 418.393829,125.949730 419.163300,125.933548 
	C425.352722,135.540100 432.038513,144.868210 437.619202,154.816254 
	C446.774109,171.135803 452.604919,188.827988 456.454407,207.092545 
	C458.168396,215.225128 458.938965,223.569290 459.884491,231.846344 
	C460.463104,236.911331 460.727722,242.027313 460.846619,247.127090 
	C461.450287,273.018951 457.421814,298.171204 448.292664,322.775879 
z"/>
<path fill="#2968A0" opacity="1.000000" stroke="none" 
	d="
M347.052124,168.944839 
	C356.644135,179.074219 363.247681,191.046448 368.620239,203.793549 
	C376.936432,223.524857 378.258545,244.331863 376.763428,265.209686 
	C375.441010,283.676544 368.953430,300.828644 359.492645,316.814728 
	C351.987427,329.496429 342.035431,339.953461 330.874664,349.411865 
	C327.951874,351.888855 325.626251,352.229523 322.801086,349.263794 
	C317.406006,343.600311 311.788055,338.149109 306.401855,332.119324 
	C306.692841,331.091095 306.844604,330.553284 307.330414,330.065247 
	C313.594879,336.719055 319.525299,343.323120 326.159271,350.710663 
	C329.005219,347.437927 330.570862,345.511902 332.276184,343.718719 
	C333.500854,342.431000 334.873169,341.273346 336.249176,340.142303 
	C338.446228,338.336304 341.099213,336.922485 342.843689,334.764282 
	C345.909119,330.971893 348.068848,326.424255 351.261139,322.762390 
	C357.743378,315.326660 362.614502,307.099915 365.585266,297.707581 
	C367.533813,291.547028 370.157349,285.534485 371.428467,279.243500 
	C372.713135,272.885559 372.034485,266.121246 373.405121,259.792480 
	C375.928833,248.139786 374.015839,236.856964 371.638763,225.626068 
	C369.904175,217.430603 368.079285,209.035690 364.648285,201.476974 
	C360.930634,193.286682 355.072968,186.092651 350.634247,178.191299 
	C349.077454,175.420029 344.887146,173.515625 346.851074,169.140839 
	C346.918335,169.075760 347.052124,168.944839 347.052124,168.944839 
z"/>
<path fill="#8DADCE" opacity="1.000000" stroke="none" 
	d="
M103.017059,398.074463 
	C106.848579,400.646515 110.680099,403.218597 114.863228,406.026703 
	C119.302872,401.902649 123.739563,397.820587 128.130310,393.689758 
	C131.347687,390.662811 135.180206,387.989685 137.431885,384.350403 
	C138.753021,382.215088 138.719864,377.513489 137.212555,375.665771 
	C131.678284,368.881683 124.596550,363.315338 119.366173,356.339294 
	C112.919342,347.740845 107.390228,338.387512 102.133217,328.986481 
	C98.423920,322.353119 95.801506,315.108765 92.762268,308.107513 
	C92.317146,307.082092 92.252419,305.891541 92.390831,304.383728 
	C93.498291,303.996460 94.226601,304.002899 94.954903,304.009338 
	C104.826050,331.754272 120.456879,355.653137 142.679672,375.081726 
	C146.209732,378.167999 146.434402,380.574005 142.972992,383.915009 
	C134.855759,391.749908 126.963211,399.819366 119.050354,407.863342 
	C116.455330,410.501343 114.267212,410.816254 111.509338,407.930908 
	C108.998940,405.304565 105.993179,403.151733 103.090866,400.137085 
	C102.989662,399.014191 103.003357,398.544312 103.017059,398.074463 
z"/>
<path fill="#87A4C4" opacity="1.000000" stroke="none" 
	d="
M86.979866,281.995087 
	C81.730568,274.655548 84.081924,265.962463 83.330399,257.993866 
	C82.350220,247.600998 83.121208,236.926254 84.247040,226.492371 
	C85.002663,219.489426 87.260315,212.547440 89.596695,205.839691 
	C93.146385,195.648514 96.706055,185.367203 101.472488,175.722656 
	C105.372536,167.831207 110.975677,160.769516 115.949890,153.425354 
	C118.967262,148.970383 121.517502,143.800629 125.559723,140.542862 
	C130.213058,136.792587 131.870392,129.337524 139.717926,129.052765 
	C125.894508,142.545563 113.984215,157.785477 104.862762,175.189667 
	C96.704140,190.756744 91.196030,207.340393 88.273872,224.501770 
	C86.213264,236.603455 86.397011,249.130005 86.150024,261.478302 
	C86.040001,266.978790 87.335945,272.507416 88.073517,278.917755 
	C88.247711,280.097717 88.342148,280.383148 88.436577,280.668549 
	C88.680748,280.809570 88.830292,281.018372 88.402054,281.576660 
	C87.605873,281.903992 87.292870,281.949554 86.979866,281.995087 
z"/>
<path fill="#87A4C4" opacity="1.000000" stroke="none" 
	d="
M104.985718,103.966904 
	C100.543770,109.237175 95.661240,114.201958 91.751213,119.841049 
	C83.504333,131.734802 75.015106,143.567627 68.050674,156.210602 
	C62.167839,166.890060 57.343533,178.388901 53.813305,190.058304 
	C50.598927,200.683640 46.331951,211.334839 46.908066,222.876953 
	C46.956234,223.841949 46.122311,224.850998 44.976578,225.930450 
	C43.817352,226.011871 43.379757,226.002411 42.942162,225.992950 
	C44.048328,211.376114 47.480103,197.325485 52.212494,183.442337 
	C58.837193,164.007874 67.698364,145.744141 80.113037,129.473846 
	C88.550903,118.415405 98.273323,108.337120 107.719818,98.132477 
	C108.014893,99.298180 108.011467,100.151955 108.008034,101.005722 
	C108.008034,101.005722 108.000000,101.000000 107.664093,101.035065 
	C106.547371,102.035713 105.766541,103.001312 104.985718,103.966904 
z"/>
<path fill="#8DADCE" opacity="1.000000" stroke="none" 
	d="
M410.267120,210.032120 
	C407.295288,201.269012 404.810303,192.302551 401.252441,183.784210 
	C393.306671,164.760147 380.885956,148.650894 366.954224,133.665497 
	C364.266998,130.775040 361.108643,128.322632 358.108185,124.952744 
	C358.041168,123.197845 358.033569,122.158348 358.025970,121.118858 
	C358.173981,120.798889 358.322021,120.478928 358.952087,119.998550 
	C359.720337,119.680389 359.922882,119.449295 360.041748,119.144867 
	C360.041748,119.144867 360.074371,119.013672 360.329102,118.955902 
	C360.822784,118.735123 360.984161,118.515152 361.067871,118.238228 
	C361.067871,118.238228 361.046936,118.069710 361.319336,117.977203 
	C361.826141,117.716507 361.984161,117.494041 362.065765,117.217300 
	C362.065765,117.217300 362.072998,117.045616 362.339966,116.970016 
	C362.835419,116.732872 362.988220,116.517639 363.065399,116.248718 
	C363.065399,116.248718 363.028381,116.074829 363.313965,115.949295 
	C363.840332,115.611885 363.974243,115.346161 364.001373,115.026596 
	C364.001373,115.026596 363.991974,114.998940 364.227814,114.881485 
	C364.739655,114.547409 364.906158,114.265984 364.963135,113.919762 
	C366.452148,112.338524 367.941132,110.757286 369.969238,109.018494 
	C370.789795,108.688576 370.963104,108.440575 371.028168,108.116943 
	C371.028168,108.116943 371.004395,108.034142 371.251984,107.925735 
	C371.754791,107.629272 371.926300,107.382912 372.014069,107.078255 
	C372.014069,107.078255 372.029816,107.001976 372.283386,106.924713 
	C372.808044,106.657021 372.967102,106.397835 373.014099,106.069893 
	C373.014099,106.069893 372.988922,106.014458 373.228699,105.908615 
	C373.728943,105.614182 373.911041,105.367653 374.014709,105.063194 
	C374.014709,105.063194 374.027466,104.997963 374.414093,105.018494 
	C376.178650,104.677391 377.556580,104.315773 378.917511,104.305374 
	C373.977295,109.712776 369.137634,114.854523 364.090790,119.784126 
	C361.989105,121.836975 361.639008,123.375008 363.902893,125.514709 
	C367.250916,128.679077 370.901154,131.704056 373.510406,135.427673 
	C377.477539,141.089096 382.566010,145.705185 386.303436,151.789948 
	C390.396179,158.453323 395.508209,164.783813 399.220551,171.790436 
	C402.735168,178.423752 404.615997,185.945450 408.312347,192.453369 
	C412.021790,198.984329 413.979156,205.633453 413.644653,213.009216 
	C412.838501,213.019653 412.377869,213.027130 411.917236,213.034607 
	C411.628571,212.569031 411.339905,212.103455 410.955261,211.135437 
	C410.733063,210.362579 410.535675,210.162292 410.267120,210.032120 
z"/>
<path fill="#286597" opacity="1.000000" stroke="none" 
	d="
M132.998169,211.982910 
	C132.661697,213.405182 132.325211,214.827469 131.640381,216.680847 
	C130.867172,218.083038 130.442291,219.054123 130.017410,220.025192 
	C130.005905,221.729675 129.994400,223.434143 129.650574,225.613007 
	C128.889572,226.740128 128.460907,227.392853 128.032257,228.045578 
	C130.143051,235.553146 127.480804,242.621185 125.673225,249.932648 
	C123.977196,231.778625 128.474731,214.662811 135.790100,198.128754 
	C142.726379,182.451477 152.782089,169.015503 165.288589,157.359772 
	C165.895172,156.794434 166.419159,156.132385 167.061920,155.615189 
	C172.606201,151.154068 172.566208,151.205780 177.713089,156.421799 
	C185.540482,164.354340 193.381760,172.275085 201.339478,180.076019 
	C203.835098,182.522476 203.637802,184.654602 201.338318,186.836273 
	C197.128189,190.830750 192.835953,194.738693 188.272095,198.811249 
	C187.258545,193.769821 192.376236,192.379822 194.625854,189.205536 
	C198.887939,183.191589 198.626114,179.820602 192.550446,175.180466 
	C188.920212,172.407944 185.928085,168.809280 182.579407,165.656036 
	C179.265396,162.535446 175.863770,159.507904 171.696228,155.705719 
	C154.186890,169.455231 142.040085,186.983047 134.639908,208.670471 
	C133.831024,210.068680 133.414597,211.025787 132.998169,211.982910 
z"/>
<path fill="#246396" opacity="1.000000" stroke="none" 
	d="
M306.996338,330.015472 
	C306.844604,330.553284 306.692841,331.091095 306.312561,331.798462 
	C303.323730,329.320587 300.520935,326.715698 297.816315,324.012634 
	C295.586212,321.783813 295.096893,319.760437 298.127441,317.478088 
	C313.326080,306.031708 324.315094,291.396393 329.371002,272.982239 
	C331.306824,265.931702 331.348724,258.332794 331.964539,250.959610 
	C332.296082,246.989594 332.016144,242.968491 332.254700,238.689072 
	C333.317719,239.275757 334.138123,240.143829 334.980774,241.433334 
	C334.942596,248.585281 335.305084,255.355881 334.672302,262.032135 
	C334.254150,266.443329 331.423828,270.717285 331.415985,275.055817 
	C331.402405,282.638641 327.566956,289.019928 323.940674,294.322510 
	C317.721680,303.416229 308.927063,310.737122 301.359802,318.937073 
	C300.563782,319.799652 300.055756,322.054504 300.600220,322.822479 
	C302.444672,325.424011 304.822388,327.647522 306.996338,330.015472 
z"/>
<path fill="#2968A0" opacity="1.000000" stroke="none" 
	d="
M311.036438,195.963898 
	C307.211182,192.539383 303.095367,189.370575 299.727417,185.543610 
	C298.634460,184.301666 298.546814,180.433334 299.618988,179.303955 
	C307.980072,170.496872 316.777924,162.106247 325.336670,153.483566 
	C327.122803,151.684097 328.840515,150.789230 330.826202,152.682190 
	C336.220367,157.824341 341.491425,163.095612 346.931702,168.630280 
	C347.052124,168.944839 346.918335,169.075760 346.508179,169.074646 
	C343.520294,169.791306 341.847748,169.850494 340.474731,166.533768 
	C338.465759,161.680832 333.632812,159.290161 328.990326,157.299484 
	C328.027985,156.886841 326.004181,157.880249 325.004425,158.804321 
	C319.929779,163.494781 314.955261,168.300964 310.104645,173.223251 
	C307.843994,175.517288 305.690826,178.010971 304.016693,180.738129 
	C303.435150,181.685455 304.102631,183.795456 304.790192,185.051010 
	C306.788757,188.700470 309.086365,192.186188 311.209045,195.792984 
	C311.151398,195.849854 311.036438,195.963898 311.036438,195.963898 
z"/>
<path fill="#27629B" opacity="1.000000" stroke="none" 
	d="
M185.348480,340.917938 
	C186.883789,338.025543 188.405121,334.732086 190.656815,332.052277 
	C193.802750,328.308167 197.493881,325.022156 201.353699,321.135437 
	C187.025787,307.275696 173.127518,293.404907 170.044586,272.344971 
	C170.009567,271.990387 170.018753,271.981293 170.310913,271.987976 
	C170.992722,271.996246 171.382370,271.997864 171.772018,271.999451 
	C174.880188,278.862396 177.068985,286.370575 181.321594,292.430389 
	C187.064514,300.613770 194.050583,308.029175 201.167175,315.106445 
	C205.689453,319.603729 206.075333,320.601105 201.372421,324.957306 
	C195.922394,330.005524 190.879822,335.493561 185.348480,340.917938 
z"/>
<path fill="#93B1D0" opacity="1.000000" stroke="none" 
	d="
M102.972839,397.705261 
	C103.003357,398.544312 102.989662,399.014191 102.952805,399.836609 
	C88.627190,385.353088 76.284142,369.053772 66.507927,350.639252 
	C67.526283,350.153503 68.267471,350.073151 69.008659,349.992798 
	C71.041672,352.883118 73.207733,355.690063 75.080795,358.680573 
	C79.363045,365.517517 83.139236,372.704590 87.830818,379.239899 
	C90.799644,383.375397 95.218292,386.440155 98.650398,390.285309 
	C100.450356,392.301819 101.525932,394.964966 102.972839,397.705261 
z"/>
<path fill="#8BA9CC" opacity="1.000000" stroke="none" 
	d="
M68.962234,349.625244 
	C68.267471,350.073151 67.526283,350.153503 66.480263,350.259064 
	C62.418598,342.414856 58.456036,334.634888 54.982380,326.642395 
	C52.910461,321.875122 51.605827,316.774384 50.326702,311.417175 
	C51.448589,311.008453 52.200050,311.006042 52.951511,311.003662 
	C55.149300,316.691254 57.217991,322.433014 59.577351,328.052765 
	C62.566635,335.172913 65.792160,342.193939 68.962234,349.625244 
z"/>
<path fill="#286597" opacity="1.000000" stroke="none" 
	d="
M125.217033,254.395599 
	C126.540138,259.222900 127.753967,264.512146 128.984528,269.797546 
	C130.051987,274.382477 131.043655,278.987915 132.240356,283.539185 
	C133.744186,289.258575 135.124695,295.038727 137.113754,300.593781 
	C138.925552,305.653870 141.479599,310.448181 143.764099,316.027466 
	C143.732544,316.912506 143.643402,317.129669 143.554245,317.346863 
	C138.806808,307.245819 132.812302,297.515442 129.668442,286.937805 
	C126.624817,276.697327 126.513985,265.585175 125.217033,254.395599 
z"/>
<path fill="#829EBB" opacity="1.000000" stroke="none" 
	d="
M411.987732,288.990997 
	C412.967194,282.396240 414.326721,275.830688 414.835449,269.199799 
	C415.566864,259.666595 415.678833,250.085861 416.566956,240.199753 
	C417.372406,239.918564 417.666046,239.963043 418.123413,240.357819 
	C418.647980,246.550049 419.616608,252.432922 419.226654,258.224304 
	C418.647522,266.826324 417.226471,275.382507 415.878998,283.913208 
	C415.595306,285.709320 414.079681,287.310883 412.900635,289.034607 
	C412.669586,289.067139 412.225891,289.211578 412.166443,289.156311 
	C412.106995,289.101074 411.987762,288.990997 411.987732,288.990997 
z"/>
<path fill="#2968A0" opacity="1.000000" stroke="none" 
	d="
M334.958527,241.011887 
	C334.138123,240.143829 333.317719,239.275757 332.230286,238.223419 
	C331.963226,238.039124 331.976379,238.012894 331.980408,237.691330 
	C331.714294,236.592834 331.444153,235.815887 331.174042,235.038956 
	C331.130096,234.874100 331.086151,234.709244 331.015869,233.897736 
	C330.612610,231.847275 330.235687,230.443466 329.858734,229.039642 
	C327.109924,222.978821 324.756256,216.694550 321.493591,210.924286 
	C318.622986,205.847473 314.735382,201.345703 311.166687,196.276947 
	C311.036438,195.963898 311.151398,195.849854 311.560638,195.889496 
	C314.316803,197.302673 317.246368,198.192078 318.880157,200.158203 
	C321.634796,203.473145 324.050415,207.263596 325.750458,211.222580 
	C329.863434,220.800903 334.743774,230.206177 334.958527,241.011887 
z"/>
<path fill="#68819C" opacity="1.000000" stroke="none" 
	d="
M42.625034,226.165863 
	C43.379757,226.002411 43.817352,226.011871 44.581642,226.014282 
	C44.627682,237.956924 44.314457,249.905960 44.084282,261.856598 
	C44.005245,265.960297 44.133785,270.067993 43.935486,274.676514 
	C43.462158,275.461395 43.220833,275.743683 42.979504,276.025940 
	C42.367970,273.243958 41.226509,270.459991 41.236946,267.680328 
	C41.281319,255.860855 41.655640,244.042374 41.939240,232.224258 
	C41.986359,230.260620 42.181286,228.300522 42.625034,226.165863 
z"/>
<path fill="#2968A0" opacity="1.000000" stroke="none" 
	d="
M143.583160,317.345886 
	C143.643402,317.129669 143.732544,316.912506 143.909119,316.354340 
	C145.213928,316.415344 146.915634,316.443573 147.564514,317.284332 
	C150.310425,320.842163 152.092621,325.467896 155.468735,328.126434 
	C159.027847,330.929047 158.512573,336.949890 164.192017,337.919983 
	C165.392303,338.125000 166.072601,341.374268 166.755234,343.607513 
	C166.347748,343.996277 166.177536,343.998413 166.007339,344.000519 
	C160.430450,338.170898 154.853561,332.341278 149.144653,325.849945 
	C148.360077,324.450104 147.707520,323.712006 147.054977,322.973877 
	C147.054977,322.973877 146.998459,322.994934 146.978119,322.689453 
	C146.452850,321.919617 145.947922,321.455231 145.442993,320.990875 
	C145.031006,320.207611 144.619034,319.424316 144.287872,318.197540 
	C144.135757,317.618896 143.902802,317.483795 143.669846,317.348663 
	C143.669846,317.348663 143.612091,317.344910 143.583160,317.345886 
z"/>
<path fill="#829EBB" opacity="1.000000" stroke="none" 
	d="
M419.013306,125.616089 
	C418.393829,125.949730 417.624359,125.965927 416.158936,125.835602 
	C411.262329,120.657326 407.177582,115.522415 402.821350,110.629173 
	C399.791504,107.225815 396.388794,104.154427 393.389709,100.703079 
	C393.698792,99.367233 393.770874,98.263031 393.878540,97.122253 
	C393.914154,97.085678 393.984009,97.011147 393.984009,97.011154 
	C402.277100,106.440315 410.570190,115.869469 419.013306,125.616089 
z"/>
<path fill="#27629B" opacity="1.000000" stroke="none" 
	d="
M170.006866,271.993347 
	C168.676529,267.865479 166.648499,263.810852 166.188736,259.585571 
	C165.532013,253.550400 165.066772,247.184158 166.324295,241.348129 
	C167.348770,236.593750 166.349243,230.666077 171.745972,227.289368 
	C172.354156,227.684433 172.575211,227.865601 172.853424,227.977036 
	C172.554947,229.101547 172.256485,230.226074 171.674133,231.898041 
	C171.278870,233.012512 171.167465,233.579514 171.056061,234.146530 
	C170.691925,236.178009 170.327789,238.209473 169.507904,240.736191 
	C169.235062,245.572632 169.417984,249.913834 169.600922,254.255035 
	C169.729202,257.206268 169.857483,260.157471 169.758118,263.770691 
	C169.693237,266.948853 169.856003,269.465088 170.018753,271.981293 
	C170.018753,271.981293 170.009567,271.990387 170.006866,271.993347 
z"/>
<path fill="#8DADCE" opacity="1.000000" stroke="none" 
	d="
M143.380447,124.970932 
	C135.110046,117.927933 127.126656,110.763283 119.228096,103.506287 
	C117.678421,102.082474 116.456879,100.301514 115.384995,98.372574 
	C117.830009,99.021469 119.974014,99.983070 122.118027,100.944664 
	C129.152969,108.191093 136.202545,115.423500 143.187424,122.717873 
	C143.618210,123.167747 143.539047,124.105957 143.380447,124.970932 
z"/>
<path fill="#83A0C3" opacity="1.000000" stroke="none" 
	d="
M43.037815,276.257141 
	C43.220833,275.743683 43.462158,275.461395 43.969685,275.077759 
	C45.073620,276.265381 46.412159,277.465149 46.660522,278.859161 
	C47.624763,284.271149 47.999336,289.792725 49.059681,295.181763 
	C50.056137,300.246094 51.640537,305.194733 52.958878,310.598969 
	C52.200050,311.006042 51.448589,311.008453 50.320923,311.020142 
	C47.968292,302.617493 45.991867,294.205505 44.079819,285.036652 
	C45.072979,281.678040 46.763268,278.978638 43.204102,276.952759 
	C43.204102,276.952759 43.096127,276.488312 43.037815,276.257141 
z"/>
<path fill="#83A0C3" opacity="1.000000" stroke="none" 
	d="
M86.710464,282.266052 
	C87.292870,281.949554 87.605873,281.903992 88.385590,281.772339 
	C90.865707,288.867706 92.879120,296.049164 94.923721,303.619965 
	C94.226601,304.002899 93.498291,303.996460 92.406975,303.985779 
	C90.176323,296.833344 88.308693,289.685181 86.710464,282.266052 
z"/>
<path fill="#27629B" opacity="1.000000" stroke="none" 
	d="
M167.255066,345.238068 
	C171.010925,345.788391 177.274948,344.205872 181.411011,341.512054 
	C182.156525,341.026550 183.308884,341.165710 184.659317,341.026489 
	C183.847961,342.601013 182.797043,344.308899 181.428604,345.705688 
	C174.716003,352.557526 173.953156,352.518951 167.255066,345.238068 
z"/>
<path fill="#83A0C3" opacity="1.000000" stroke="none" 
	d="
M417.959717,240.007538 
	C417.666046,239.963043 417.372406,239.918564 416.642883,239.779312 
	C415.487244,234.414185 414.767487,229.143860 414.336182,223.312531 
	C415.059052,222.503586 415.493500,222.255615 416.102539,222.353653 
	C416.838013,228.468948 417.398865,234.238235 417.959717,240.007538 
z"/>
<path fill="#87A4C4" opacity="1.000000" stroke="none" 
	d="
M122.045609,100.607101 
	C119.974014,99.983070 117.830009,99.021469 115.351669,98.025970 
	C113.945221,97.989128 112.873093,97.986176 111.147629,97.886536 
	C110.014107,97.532417 109.533936,97.274986 109.053757,97.017548 
	C111.539917,92.572868 114.719231,93.226952 117.975571,95.960846 
	C119.464462,97.210854 120.650055,98.822113 122.045609,100.607101 
z"/>
<path fill="#29679C" opacity="1.000000" stroke="none" 
	d="
M172.997116,227.633331 
	C172.575211,227.865601 172.354156,227.684433 172.101532,227.236267 
	C172.310944,221.944504 173.768936,217.370209 178.224945,213.948242 
	C176.767273,218.373444 174.954041,222.831528 172.997116,227.633331 
z"/>
<path fill="#87A4C4" opacity="1.000000" stroke="none" 
	d="
M415.927979,222.007660 
	C415.493500,222.255615 415.059052,222.503586 414.399658,222.862564 
	C413.440399,219.929916 412.706085,216.886276 411.944519,213.438599 
	C412.377869,213.027130 412.838501,213.019653 413.927490,213.251785 
	C415.013245,216.330154 415.470612,219.168915 415.927979,222.007660 
z"/>
<path fill="#829EBB" opacity="1.000000" stroke="none" 
	d="
M381.912811,96.921555 
	C387.245758,92.068359 387.245758,92.068359 393.818909,96.706337 
	C393.984009,97.011147 393.914154,97.085678 393.486694,97.067764 
	C391.738495,97.022156 390.417725,96.994469 389.076935,96.950737 
	C389.056885,96.934692 389.024994,96.894432 388.944489,96.557732 
	C386.615692,96.520050 384.367371,96.819069 382.067719,97.068726 
	C382.016357,97.019363 381.912811,96.921555 381.912811,96.921555 
z"/>
<path fill="#29679C" opacity="1.000000" stroke="none" 
	d="
M169.727219,253.856110 
	C169.417984,249.913834 169.235062,245.572632 169.426407,241.120178 
	C169.818298,245.158340 169.835922,249.307755 169.727219,253.856110 
z"/>
<path fill="#829EBB" opacity="1.000000" stroke="none" 
	d="
M378.934509,103.954147 
	C377.556580,104.315773 376.178650,104.677391 374.441650,105.037079 
	C376.492767,102.428848 378.902954,99.822556 381.612976,97.068909 
	C381.912811,96.921555 382.016357,97.019363 382.027405,97.424751 
	C382.023804,98.549324 382.009155,99.268509 381.861389,100.273209 
	C380.797058,101.690536 379.865784,102.822342 378.934509,103.954147 
z"/>
<path fill="#68819C" opacity="1.000000" stroke="none" 
	d="
M43.104042,277.371521 
	C46.763268,278.978638 45.072979,281.678040 44.085541,284.608093 
	C43.685917,282.554382 43.344952,280.172302 43.104042,277.371521 
z"/>
<path fill="#29679C" opacity="1.000000" stroke="none" 
	d="
M170.310913,271.987976 
	C169.856003,269.465088 169.693237,266.948853 169.793732,264.198090 
	C170.675476,266.377991 171.293976,268.792480 171.842255,271.603210 
	C171.382370,271.997864 170.992722,271.996246 170.310913,271.987976 
z"/>
<path fill="#8DADCE" opacity="1.000000" stroke="none" 
	d="
M108.748825,97.152359 
	C109.533936,97.274986 110.014107,97.532417 110.746002,97.894501 
	C110.200462,98.913597 109.403206,99.828064 108.306992,100.874123 
	C108.011467,100.151955 108.014893,99.298180 108.021255,98.124870 
	C108.164093,97.632607 108.303986,97.459892 108.748825,97.152359 
z"/>
<path fill="#286597" opacity="1.000000" stroke="none" 
	d="
M179.129120,212.792542 
	C179.453903,211.428940 180.067398,209.887192 181.017914,208.346863 
	C180.709244,209.770325 180.063538,211.192352 179.129120,212.792542 
z"/>
<path fill="#829EBB" opacity="1.000000" stroke="none" 
	d="
M412.067932,291.954803 
	C411.629669,292.533478 411.191406,293.112152 410.517639,293.833344 
	C410.647797,292.433685 411.013428,290.891510 411.683411,289.170166 
	C411.987762,288.990997 412.106995,289.101074 412.099487,289.463196 
	C412.093445,290.246643 412.094940,290.667908 412.090759,291.305664 
	C412.085114,291.522095 412.067932,291.954803 412.067932,291.954803 
z"/>
<path fill="#829EBB" opacity="1.000000" stroke="none" 
	d="
M407.670502,303.103943 
	C407.617950,304.179413 407.246429,305.381744 406.611145,306.773071 
	C406.682098,305.718292 407.016815,304.474518 407.670502,303.103943 
z"/>
<path fill="#246396" opacity="1.000000" stroke="none" 
	d="
M329.912720,229.421204 
	C330.235687,230.443466 330.612610,231.847275 330.975281,233.645050 
	C330.629608,232.626938 330.298157,231.214844 329.912720,229.421204 
z"/>
<path fill="#286597" opacity="1.000000" stroke="none" 
	d="
M147.156219,323.256317 
	C147.707520,323.712006 148.360077,324.450104 149.030060,325.526123 
	C148.450806,325.088959 147.854126,324.313843 147.156219,323.256317 
z"/>
<path fill="#829EBB" opacity="1.000000" stroke="none" 
	d="
M357.788696,121.320053 
	C358.033569,122.158348 358.041168,123.197845 358.020538,124.626892 
	C357.845367,123.851379 357.698364,122.686310 357.788696,121.320053 
z"/>
<path fill="#286597" opacity="1.000000" stroke="none" 
	d="
M185.615921,202.243103 
	C185.863892,201.571823 186.390884,200.818375 187.204742,200.007446 
	C186.959412,200.686966 186.427170,201.423950 185.615921,202.243103 
z"/>
<path fill="#286597" opacity="1.000000" stroke="none" 
	d="
M183.010284,204.080566 
	C183.581116,203.510498 184.151932,202.940414 185.029434,202.339996 
	C184.900162,203.237320 184.464203,204.164963 183.640259,205.155716 
	C183.252289,205.218811 182.988464,204.988434 182.995300,204.761505 
	C183.002121,204.534561 183.010284,204.080566 183.010284,204.080566 
z"/>
<path fill="#246396" opacity="1.000000" stroke="none" 
	d="
M331.105469,235.372589 
	C331.444153,235.815887 331.714294,236.592834 331.969421,237.695068 
	C331.648590,237.248993 331.342743,236.477615 331.105469,235.372589 
z"/>
<path fill="#286597" opacity="1.000000" stroke="none" 
	d="
M145.456085,321.257843 
	C145.947922,321.455231 146.452850,321.919617 146.992813,322.663116 
	C146.508286,322.469788 145.988724,321.997284 145.456085,321.257843 
z"/>
<path fill="#83A0C3" opacity="1.000000" stroke="none" 
	d="
M447.127197,326.200836 
	C447.105103,325.707916 447.266541,325.030884 447.639587,324.187744 
	C447.671021,324.686676 447.490906,325.351685 447.127197,326.200836 
z"/>
<path fill="#829EBB" opacity="1.000000" stroke="none" 
	d="
M386.871521,344.588257 
	C386.900665,344.877045 386.758972,345.321564 386.418640,345.901245 
	C386.380249,345.605560 386.540466,345.174805 386.871521,344.588257 
z"/>
<path fill="#829EBB" opacity="1.000000" stroke="none" 
	d="
M400.928741,319.515320 
	C401.012115,319.828217 400.885010,320.241516 400.590149,320.795898 
	C400.521027,320.496582 400.619659,320.056152 400.928741,319.515320 
z"/>
<path fill="#829EBB" opacity="1.000000" stroke="none" 
	d="
M398.873657,323.357239 
	C399.036987,323.672882 398.970276,324.084198 398.785706,324.667908 
	C398.659790,324.377869 398.651703,323.915405 398.873657,323.357239 
z"/>
<path fill="#829EBB" opacity="1.000000" stroke="none" 
	d="
M402.795898,315.208130 
	C402.937225,315.564697 402.845734,316.068939 402.570618,316.756897 
	C402.445709,316.412384 402.504395,315.884064 402.795898,315.208130 
z"/>
<path fill="#829EBB" opacity="1.000000" stroke="none" 
	d="
M403.739655,313.169708 
	C403.848206,313.582275 403.689331,314.128387 403.292908,314.843079 
	C403.194336,314.442200 403.333252,313.872711 403.739655,313.169708 
z"/>
<path fill="#286597" opacity="1.000000" stroke="none" 
	d="
M182.286072,206.904266 
	C182.033691,206.576385 182.029526,206.125977 182.276611,205.337433 
	C182.527847,204.999298 182.988464,204.988434 182.988464,204.988434 
	C182.988464,204.988434 183.252289,205.218811 183.383347,205.338318 
	C183.187698,205.899124 182.860977,206.340454 182.286072,206.904266 
z"/>
<path fill="#829EBB" opacity="1.000000" stroke="none" 
	d="
M383.825500,348.326050 
	C383.876984,348.709503 383.667908,349.208069 383.222687,349.851440 
	C383.179352,349.477875 383.372131,348.959503 383.825500,348.326050 
z"/>
<path fill="#829EBB" opacity="1.000000" stroke="none" 
	d="
M408.728088,299.128906 
	C408.908478,299.528229 408.815186,300.049347 408.533234,300.761353 
	C408.381195,300.385040 408.417786,299.817871 408.728088,299.128906 
z"/>
<path fill="#829EBB" opacity="1.000000" stroke="none" 
	d="
M394.890747,331.385223 
	C394.994629,331.714050 394.891907,332.162201 394.615936,332.763275 
	C394.523193,332.445648 394.603668,331.975098 394.890747,331.385223 
z"/>
<path fill="#29679C" opacity="1.000000" stroke="none" 
	d="
M171.319458,233.981995 
	C171.167465,233.579514 171.278870,233.012512 171.607742,232.248505 
	C171.744431,232.640167 171.663635,233.228821 171.319458,233.981995 
z"/>
<path fill="#829EBB" opacity="1.000000" stroke="none" 
	d="
M397.851562,326.316559 
	C397.972748,326.520905 397.829010,326.723541 397.455872,326.970520 
	C397.266022,326.752441 397.386047,326.519104 397.851562,326.316559 
z"/>
<path fill="#829EBB" opacity="1.000000" stroke="none" 
	d="
M396.852570,327.311066 
	C397.009918,327.309601 396.905975,327.668671 396.823181,327.713654 
	C396.740387,327.758636 396.500824,327.557556 396.500824,327.557556 
	C396.500824,327.557556 396.695221,327.312531 396.852570,327.311066 
z"/>
<path fill="#829EBB" opacity="1.000000" stroke="none" 
	d="
M395.834778,330.190979 
	C395.989716,330.380646 395.861542,330.630035 395.457092,330.943359 
	C395.271423,330.741150 395.395050,330.488953 395.834778,330.190979 
z"/>
<path fill="#829EBB" opacity="1.000000" stroke="none" 
	d="
M384.845520,347.298401 
	C384.968781,347.508636 384.816040,347.722046 384.414093,347.974304 
	C384.241669,347.753357 384.376526,347.516174 384.845520,347.298401 
z"/>
<path fill="#829EBB" opacity="1.000000" stroke="none" 
	d="
M360.857056,118.290756 
	C360.984161,118.515152 360.822784,118.735123 360.392700,118.978668 
	C360.230988,118.746742 360.379211,118.508110 360.857056,118.290756 
z"/>
<path fill="#829EBB" opacity="1.000000" stroke="none" 
	d="
M361.840088,117.253372 
	C361.984161,117.494041 361.826141,117.716507 361.404175,117.973740 
	C361.182831,117.719398 361.315399,117.461617 361.840088,117.253372 
z"/>
<path fill="#27629B" opacity="1.000000" stroke="none" 
	d="
M166.104889,344.229797 
	C166.177536,343.998413 166.347748,343.996277 166.773712,343.991699 
	C167.029434,343.989227 167.061081,344.429321 167.064392,344.649719 
	C166.701187,344.897430 166.412781,344.760437 166.104889,344.229797 
z"/>
<path fill="#829EBB" opacity="1.000000" stroke="none" 
	d="
M362.856750,116.297989 
	C362.988220,116.517639 362.835419,116.732872 362.425262,116.980476 
	C362.242828,116.750496 362.377686,116.510735 362.856750,116.297989 
z"/>
<path fill="#829EBB" opacity="1.000000" stroke="none" 
	d="
M399.814209,322.168671 
	C399.981873,322.372711 399.851501,322.625214 399.446747,322.946655 
	C399.214630,322.726105 399.329224,322.459961 399.814209,322.168671 
z"/>
<path fill="#829EBB" opacity="1.000000" stroke="none" 
	d="
M401.802246,318.143005 
	C401.985931,318.345642 401.868591,318.597504 401.491760,318.931091 
	C401.198029,318.710785 401.287659,318.437225 401.802246,318.143005 
z"/>
<path fill="#286597" opacity="1.000000" stroke="none" 
	d="
M143.712189,317.544342 
	C143.902802,317.483795 144.135757,317.618896 144.218460,317.871429 
	C144.068207,317.988831 143.754517,317.740021 143.712189,317.544342 
z"/>
<path fill="#829EBB" opacity="1.000000" stroke="none" 
	d="
M359.789307,119.155861 
	C359.922882,119.449295 359.720337,119.680389 359.210632,119.907074 
	C359.170380,119.706291 359.353638,119.436569 359.789307,119.155861 
z"/>
<path fill="#829EBB" opacity="1.000000" stroke="none" 
	d="
M404.796356,310.109131 
	C405.005005,310.295441 404.920258,310.526611 404.605591,310.840210 
	C404.455353,310.951874 404.294006,310.530365 404.294006,310.530365 
	C404.294006,310.530365 404.582581,310.183228 404.796356,310.109131 
z"/>
<path fill="#829EBB" opacity="1.000000" stroke="none" 
	d="
M364.712280,114.004105 
	C364.906158,114.265984 364.739655,114.547409 364.242310,114.879753 
	C364.167816,114.693138 364.314636,114.390793 364.712280,114.004105 
z"/>
<path fill="#83A0C3" opacity="1.000000" stroke="none" 
	d="
M88.653412,280.470184 
	C88.342148,280.383148 88.247711,280.097717 88.093323,279.365356 
	C88.312325,279.369568 88.591286,279.820679 88.653412,280.470184 
z"/>
<path fill="#829EBB" opacity="1.000000" stroke="none" 
	d="
M370.811310,108.194038 
	C370.963104,108.440575 370.789795,108.688576 370.287903,108.933685 
	C370.150604,108.694962 370.326233,108.449867 370.811310,108.194038 
z"/>
<path fill="#829EBB" opacity="1.000000" stroke="none" 
	d="
M371.758392,107.108559 
	C371.926300,107.382912 371.754791,107.629272 371.294128,107.916847 
	C371.226685,107.723862 371.364716,107.431358 371.758392,107.108559 
z"/>
<path fill="#829EBB" opacity="1.000000" stroke="none" 
	d="
M363.780029,115.118935 
	C363.974243,115.346161 363.840332,115.611885 363.401978,115.936691 
	C363.137451,115.691956 363.255554,115.412506 363.780029,115.118935 
z"/>
<path fill="#829EBB" opacity="1.000000" stroke="none" 
	d="
M372.803619,106.165260 
	C372.967102,106.397835 372.808044,106.657021 372.320923,106.934967 
	C372.162994,106.701454 372.325745,106.447502 372.803619,106.165260 
z"/>
<path fill="#829EBB" opacity="1.000000" stroke="none" 
	d="
M373.749023,105.081802 
	C373.911041,105.367653 373.728943,105.614182 373.258636,105.903305 
	C373.193665,105.702698 373.338501,105.401550 373.749023,105.081802 
z"/>
<path fill="#87A4C4" opacity="1.000000" stroke="none" 
	d="
M410.214142,210.275482 
	C410.535675,210.162292 410.733063,210.362579 410.912659,210.840271 
	C410.604523,211.013229 410.336212,210.836990 410.214142,210.275482 
z"/>
<path fill="#286597" opacity="1.000000" stroke="none" 
	d="
M181.588776,208.117584 
	C181.448059,207.930374 181.515991,207.609161 181.809250,207.158997 
	C182.053772,207.372330 181.974716,207.690155 181.588776,208.117584 
z"/>
<path fill="#8DADCE" opacity="1.000000" stroke="none" 
	d="
M105.326141,103.941185 
	C105.766541,103.001312 106.547371,102.035713 107.668015,101.039078 
	C107.227417,101.977180 106.446983,102.946320 105.326141,103.941185 
z"/>
<path fill="#2968A0" opacity="1.000000" stroke="none" 
	d="
M130.336655,219.984650 
	C130.442291,219.054123 130.867172,218.083038 131.633835,217.054169 
	C131.535706,217.978943 131.095810,218.961517 130.336655,219.984650 
z"/>
<path fill="#2968A0" opacity="1.000000" stroke="none" 
	d="
M133.341187,211.930969 
	C133.414597,211.025787 133.831024,210.068680 134.579010,209.047363 
	C134.501770,209.948471 134.092987,210.913757 133.341187,211.930969 
z"/>
<path fill="#2968A0" opacity="1.000000" stroke="none" 
	d="
M128.346268,227.985626 
	C128.460907,227.392853 128.889572,226.740128 129.634598,226.038757 
	C129.520737,226.635315 129.090515,227.280502 128.346268,227.985626 
z"/>
<path fill="#29679C" opacity="1.000000" stroke="none" 
	d="
M182.995300,204.761505 
	C182.988464,204.988434 182.527847,204.999298 182.298309,204.999878 
	C182.229950,204.686249 182.391129,204.372040 182.781311,204.069199 
	C183.010284,204.080566 183.002121,204.534561 182.995300,204.761505 
z"/>
<path fill="#98BDE7" opacity="1.000000" stroke="none" 
	d="
M412.330963,292.169678 
	C412.067932,291.954803 412.085114,291.522095 412.369568,291.252319 
	C412.813263,290.322418 412.972473,289.662231 413.131714,289.002075 
	C414.079681,287.310883 415.595306,285.709320 415.878998,283.913208 
	C417.226471,275.382507 418.647522,266.826324 419.226654,258.224304 
	C419.616608,252.432922 418.647980,246.550049 418.123413,240.357819 
	C417.398865,234.238235 416.838013,228.468948 416.102539,222.353668 
	C415.470612,219.168915 415.013245,216.330154 414.273010,213.248840 
	C413.979156,205.633453 412.021790,198.984329 408.312347,192.453369 
	C404.615997,185.945450 402.735168,178.423752 399.220551,171.790436 
	C395.508209,164.783813 390.396179,158.453323 386.303436,151.789948 
	C382.566010,145.705185 377.477539,141.089096 373.510406,135.427673 
	C370.901154,131.704056 367.250916,128.679077 363.902893,125.514709 
	C361.639008,123.375008 361.989105,121.836975 364.090790,119.784126 
	C369.137634,114.854523 373.977295,109.712776 378.917511,104.305382 
	C379.865784,102.822342 380.797058,101.690536 382.213989,100.238800 
	C384.808105,98.910721 386.916534,97.902573 389.024994,96.894424 
	C389.024994,96.894432 389.056885,96.934692 389.191467,97.248337 
	C390.601562,98.686226 391.877106,99.810478 393.152679,100.934723 
	C396.388794,104.154427 399.791504,107.225815 402.821350,110.629173 
	C407.177582,115.522415 411.262329,120.657326 415.774048,125.833466 
	C419.086426,130.673309 422.322754,135.237381 425.037292,140.093124 
	C429.837799,148.680130 433.672333,157.877136 439.104858,166.022705 
	C445.537720,175.668167 446.803802,186.961777 450.587677,197.394760 
	C453.531647,205.512115 453.112152,214.782166 455.161835,223.305618 
	C458.959198,239.096680 456.464874,255.017059 456.794281,270.855255 
	C456.930481,277.403839 454.706879,284.025574 453.361603,290.573975 
	C452.053223,296.942993 450.625702,303.294373 449.001923,309.589355 
	C447.900787,313.858154 446.370209,318.016205 445.029663,322.610779 
	C442.997040,327.284760 440.822693,331.510406 438.962311,335.870026 
	C432.988220,349.869415 425.525543,362.954254 415.861664,374.766266 
	C410.020874,381.905334 404.488312,389.298889 398.570801,396.371918 
	C395.762177,399.728973 392.550476,402.817780 389.151978,405.572357 
	C388.069641,406.449615 385.048035,406.640106 384.186615,405.815369 
	C377.039154,398.972351 370.171814,391.835541 363.257874,384.750427 
	C359.051270,380.439728 359.416565,379.823486 364.015442,375.853607 
	C368.569672,371.922241 372.663635,367.428772 376.739990,362.980713 
	C381.001892,358.330139 385.050751,353.480194 389.086121,348.628784 
	C390.231140,347.252197 391.145508,345.633850 391.924683,344.010712 
	C398.465851,330.384766 405.145508,316.818817 411.304108,303.020813 
	C412.695099,299.904327 412.213562,295.952057 412.330963,292.169678 
z"/>
<path fill="#2975BF" opacity="1.000000" stroke="none" 
	d="
M334.980774,241.433334 
	C334.743774,230.206177 329.863434,220.800903 325.750458,211.222580 
	C324.050415,207.263596 321.634796,203.473145 318.880157,200.158203 
	C317.246368,198.192078 314.316803,197.302673 311.618286,195.832626 
	C309.086365,192.186188 306.788757,188.700470 304.790192,185.051010 
	C304.102631,183.795456 303.435150,181.685455 304.016693,180.738129 
	C305.690826,178.010971 307.843994,175.517288 310.104645,173.223251 
	C314.955261,168.300964 319.929779,163.494781 325.004425,158.804321 
	C326.004181,157.880249 328.027985,156.886841 328.990326,157.299484 
	C333.632812,159.290161 338.465759,161.680832 340.474731,166.533768 
	C341.847748,169.850494 343.520294,169.791306 346.440918,169.139740 
	C344.887146,173.515625 349.077454,175.420029 350.634247,178.191299 
	C355.072968,186.092651 360.930634,193.286682 364.648285,201.476974 
	C368.079285,209.035690 369.904175,217.430603 371.638763,225.626068 
	C374.015839,236.856964 375.928833,248.139786 373.405121,259.792480 
	C372.034485,266.121246 372.713135,272.885559 371.428467,279.243500 
	C370.157349,285.534485 367.533813,291.547028 365.585266,297.707581 
	C362.614502,307.099915 357.743378,315.326660 351.261139,322.762390 
	C348.068848,326.424255 345.909119,330.971893 342.843689,334.764282 
	C341.099213,336.922485 338.446228,338.336304 336.249176,340.142303 
	C334.873169,341.273346 333.500854,342.431000 332.276184,343.718719 
	C330.570862,345.511902 329.005219,347.437927 326.159271,350.710663 
	C319.525299,343.323120 313.594879,336.719055 307.330383,330.065247 
	C304.822388,327.647522 302.444672,325.424011 300.600220,322.822479 
	C300.055756,322.054504 300.563782,319.799652 301.359802,318.937073 
	C308.927063,310.737122 317.721680,303.416229 323.940674,294.322510 
	C327.566956,289.019928 331.402405,282.638641 331.415985,275.055817 
	C331.423828,270.717285 334.254150,266.443329 334.672302,262.032135 
	C335.305084,255.355881 334.942596,248.585281 334.980774,241.433334 
z"/>
<path fill="#8BA9CC" opacity="1.000000" stroke="none" 
	d="
M412.900635,289.034607 
	C412.972473,289.662231 412.813263,290.322418 412.375214,291.035889 
	C412.094940,290.667908 412.093445,290.246643 412.158936,289.518463 
	C412.225891,289.211578 412.669586,289.067139 412.900635,289.034607 
z"/>
<path fill="#83A0C3" opacity="1.000000" stroke="none" 
	d="
M393.389709,100.703079 
	C391.877106,99.810478 390.601562,98.686226 389.211487,97.264374 
	C390.417725,96.994469 391.738495,97.022156 393.451080,97.104340 
	C393.770874,98.263031 393.698792,99.367233 393.389709,100.703079 
z"/>
<path fill="#83A0C3" opacity="1.000000" stroke="none" 
	d="
M388.944489,96.557724 
	C386.916534,97.902573 384.808105,98.910721 382.347076,99.953278 
	C382.009155,99.268509 382.023804,98.549324 382.078766,97.474113 
	C384.367371,96.819069 386.615692,96.520050 388.944489,96.557724 
z"/>
</svg>